<svg width="24" height="24" viewBox="0 0 24 24" fill="none" xmlns="http://www.w3.org/2000/svg">
<rect width="24" height="24" fill="white"/>
<path d="M8.4 7.83333H10.6M8.4 11.1667H10.6M8.4 14.5H10.6M13.4 7.83333H15.6M13.4 11.1667H15.6M13.4 14.5H15.6M18.4 19.5V7.16667C18.4 6.23325 18.4 5.76654 18.2256 5.41002C18.0722 5.09641 17.8274 4.84144 17.5264 4.68166C17.1841 4.5 16.7361 4.5 15.84 4.5H8.16C7.26392 4.5 6.81587 4.5 6.47362 4.68166C6.17256 4.84144 5.92779 5.09641 5.77439 5.41002C5.6 5.76654 5.6 6.23325 5.6 7.16667V19.5M20 19.5H4" stroke="#293C52" stroke-width="1.25" stroke-linecap="round" stroke-linejoin="round"/>
</svg>
