<svg width="32" height="32" viewBox="0 0 32 32" fill="none" xmlns="http://www.w3.org/2000/svg">
<circle cx="16" cy="16" r="16" fill="white"/>
<path d="M24.4792 13.8871C24.532 13.6642 24.6777 13.5528 24.9162 13.5528C25.2028 13.5528 25.4898 13.5603 25.7759 13.5503C25.9369 13.5448 26.0009 13.5956 25.9999 13.7737C25.9908 15.2575 25.9918 16.7419 25.9808 18.2257C25.9789 18.4476 25.9397 18.6714 25.8991 18.8903C25.6087 20.4597 24.3593 20.892 23.1767 20.7119C23.1266 20.7045 23.0487 20.6274 23.0473 20.5806C23.0363 20.2259 23.0411 19.8708 23.0411 19.4892C23.5693 19.4658 24.035 19.3271 24.3445 18.8635C24.5174 18.6043 24.5389 18.3108 24.505 17.9994C24.4758 18.0029 24.4458 17.9964 24.4348 18.0089C23.8058 18.6993 23.0339 18.7525 22.232 18.4804C21.4158 18.2034 21.0442 17.5224 20.931 16.6762C20.8498 16.0698 20.8823 15.4649 21.0877 14.8854C21.5858 13.4807 23.1844 12.9703 24.3775 13.8294C24.408 13.8513 24.4429 13.8667 24.4792 13.8876V13.8871ZM24.5293 16.0549C24.5379 15.4286 24.077 14.9237 23.4834 14.9088C22.8997 14.8939 22.414 15.3953 22.404 16.0226C22.3939 16.6494 22.8615 17.1592 23.4523 17.1657C24.0484 17.1722 24.5212 16.6847 24.5293 16.0549Z" fill="#002047"/>
<path d="M7.51307 17.9431C7.4954 18.055 7.48251 18.1341 7.46245 18.2615C7.16346 18.2615 6.85636 18.2615 6.54973 18.2615C6.18324 18.2615 6 18.0686 6 17.683C6 15.7022 6 13.7213 6 11.7405C6 11.6346 6 11.5286 6 11.4053H7.4849V14.0183C8.16836 13.5801 8.85851 13.406 9.59642 13.596C10.043 13.7109 10.3926 14.0039 10.6696 14.3839C11.2967 15.244 11.3354 16.6478 10.767 17.471C10.3873 18.0202 9.86866 18.2873 9.23343 18.3595C8.61922 18.4291 8.05087 18.3057 7.51307 17.9431ZM8.54328 17.1656C9.13743 17.1611 9.61122 16.6597 9.61027 16.0364C9.60931 15.4171 9.12836 14.9112 8.53851 14.9087C7.952 14.9062 7.4763 15.4136 7.47773 16.0414C7.47869 16.6736 7.94961 17.1701 8.54376 17.1656H8.54328Z" fill="#002047"/>
<path d="M17.4446 13.5059C18.7609 13.5083 19.8336 14.36 20.0543 15.5359C20.3198 16.9526 19.4133 18.2838 18.0158 18.533C17.1671 18.6842 16.3962 18.4972 15.74 17.9152C15.0026 17.2615 14.7141 16.4154 14.961 15.4374C15.2189 14.4152 15.9124 13.8247 16.8824 13.571C16.9746 13.5466 17.0697 13.5307 17.1642 13.5208C17.275 13.5093 17.3863 13.5088 17.4451 13.5059H17.4446ZM18.5584 16.0448C18.5593 15.4011 18.0898 14.9007 17.4871 14.9027C16.9054 14.9047 16.4373 15.3971 16.4316 16.0134C16.4254 16.6437 16.891 17.1506 17.4814 17.1551C18.0789 17.16 18.5579 16.6666 18.5589 16.0448H18.5584Z" fill="#002047"/>
<path d="M11.5584 11.25C12.3961 11.3948 13.0137 11.7937 13.4196 12.5215C13.7019 13.0269 13.8275 13.584 13.8323 14.163C13.8428 15.4643 13.8313 16.7656 13.8404 18.0669C13.8418 18.2728 13.7697 18.3211 13.592 18.3156C13.2501 18.3057 12.9071 18.2997 12.5657 18.3176C12.3455 18.3291 12.3011 18.2375 12.3025 18.0286C12.3101 16.7855 12.3073 15.5419 12.3054 14.2988C12.3054 14.1416 12.3001 13.9834 12.281 13.8277C12.2347 13.4482 12.0556 13.1641 11.7165 12.9935C11.6544 12.9622 11.567 12.8915 11.5655 12.8368C11.5541 12.325 11.5588 11.8126 11.5588 11.2505L11.5584 11.25Z" fill="#002047"/>
</svg>
