<svg width="128" height="128" viewBox="0 0 128 128" fill="none" xmlns="http://www.w3.org/2000/svg">
<g clip-path="url(#clip0_423_32054)">
<path d="M13 13.999C13 10.6853 15.6863 7.99902 19 7.99902H51C54.3137 7.99902 57 10.6853 57 13.999V119.999H19C15.6863 119.999 13 117.313 13 113.999V13.999Z" fill="white"/>
<rect x="22" y="18.999" width="11" height="7" rx="2" fill="#C6D5E8"/>
<rect x="22" y="32.999" width="11" height="7" rx="2" fill="#C6D5E8"/>
<rect x="22" y="46.999" width="11" height="7" rx="2" fill="#C6D5E8"/>
<rect x="22" y="60.999" width="11" height="7" rx="2" fill="#C6D5E8"/>
<rect x="22" y="74.999" width="11" height="7" rx="2" fill="#C6D5E8"/>
<rect x="22" y="88.999" width="11" height="7" rx="2" fill="#C6D5E8"/>
<rect x="22" y="102.999" width="11" height="7" rx="2" fill="#C6D5E8"/>
<rect x="37" y="18.999" width="11" height="7" rx="2" fill="#C6D5E8"/>
<rect x="37" y="32.999" width="11" height="7" rx="2" fill="#C6D5E8"/>
<rect x="37" y="46.999" width="11" height="7" rx="2" fill="#C6D5E8"/>
<rect x="37" y="60.999" width="11" height="7" rx="2" fill="#C6D5E8"/>
<rect x="37" y="74.999" width="11" height="7" rx="2" fill="#C6D5E8"/>
<rect x="37" y="88.999" width="11" height="7" rx="2" fill="#C6D5E8"/>
<rect x="37" y="102.999" width="11" height="7" rx="2" fill="#C6D5E8"/>
<path d="M57 64.999H95C98.3137 64.999 101 67.6853 101 70.999V113.999C101 117.313 98.3137 119.999 95 119.999H57V64.999Z" fill="white"/>
<rect x="66" y="73.999" width="26" height="7" rx="2" fill="#C6D5E8"/>
<rect x="66" y="88.999" width="26" height="7" rx="2" fill="#C6D5E8"/>
<rect x="66" y="103.999" width="26" height="7" rx="2" fill="#C6D5E8"/>
<path d="M72.2633 43.7896C71.7946 43.3208 71.5886 42.6503 71.7132 41.9992L75.3079 23.227C75.6097 21.6508 77.5517 21.0542 78.6864 22.189L84.0615 27.564C84.643 28.1455 84.8093 29.0236 84.4807 29.7774L77.6907 45.3543C77.1275 46.6466 75.4399 46.9662 74.4431 45.9694L72.2633 43.7896Z" fill="#0F62FE"/>
<path d="M102.79 13.2635C102.321 12.7947 101.651 12.5887 101 12.7134L82.2274 16.308C80.6512 16.6099 80.0545 18.5518 81.1893 19.6866L86.5644 25.0616C87.1458 25.6431 88.024 25.8094 88.7778 25.4808L104.355 18.6909C105.647 18.1276 105.967 16.44 104.97 15.4433L102.79 13.2635Z" fill="#0F62FE"/>
<path fill-rule="evenodd" clip-rule="evenodd" d="M70.5134 18.0187C68.5788 16.0841 68.5788 12.9474 70.5134 11.0128C72.4481 9.07818 75.5847 9.07818 77.5194 11.0128L96.7861 30.2796L102.56 29.5868C102.864 29.5502 103.169 29.6556 103.386 29.8725L106.902 33.389C107.428 33.9146 107.217 34.8097 106.511 35.0448L97.5375 38.0361L93.5334 34.0319L93.5332 34.032L97.5371 38.0359L94.5458 47.0098C94.3108 47.715 93.4157 47.9263 92.89 47.4007L89.3736 43.8842C89.1566 43.6672 89.0513 43.3627 89.0878 43.058L89.7805 37.2858L70.5134 18.0187Z" fill="#0F62FE"/>
</g>
<defs>
<clipPath id="clip0_423_32054">
<rect width="128" height="128" fill="white"/>
</clipPath>
</defs>
</svg>
