<svg width="1920" height="600" viewBox="0 0 1920 600" fill="none" xmlns="http://www.w3.org/2000/svg">
<g clip-path="url(#clip0_417_22325)">
<g opacity="0.6">
<rect x="1159" y="592" width="774" height="231" fill="white"/>
<g filter="url(#filter0_f_417_22325)">
<path d="M2136.05 274.177L2144.75 276.304L2154 601H1077V598.164V585.403V580.441V573.351C1077.54 571.461 1078.63 567.254 1078.63 565.553V559.172L1083.53 547.12L1091.14 535.777L1096.04 525.852L1109.09 506.711L1112.9 498.203L1115.62 493.95L1118.88 491.823L1131.94 481.189L1144.99 475.517C1148.44 474.099 1155.87 470.98 1158.05 469.846C1160.77 468.428 1169.47 461.338 1171.65 461.338C1173.82 461.338 1181.44 455.667 1184.16 452.831C1186.33 450.562 1191.59 450.468 1193.95 450.704L1204.83 448.577L1229.3 445.033L1230.93 443.615L1234.74 442.197H1238.55H1244.53H1252.15H1263.57C1264.12 442.197 1271.73 443.615 1273.36 443.615C1274.67 443.615 1279.35 444.56 1281.52 445.033C1283.88 445.978 1289.14 448.01 1291.31 448.577C1293.49 449.144 1295.48 450.231 1296.21 450.704L1300.02 452.831L1307.09 459.211L1308.72 461.338L1321.77 475.517H1325.04H1328.84H1331.56L1342.44 478.353C1345.16 479.298 1350.82 481.189 1351.69 481.189C1352.56 481.189 1354.59 483.079 1355.5 484.024L1360.94 488.987L1366.38 496.785L1371.82 500.33L1372.36 499.621L1373.45 496.785L1380.52 491.823L1386.5 486.151C1387.59 485.679 1389.98 484.592 1390.85 484.024C1391.94 483.315 1396.84 481.189 1397.92 481.189H1401.73H1409.89H1416.42L1420.23 478.353L1421.31 477.644L1423.49 475.517L1424.58 474.099L1426.21 472.681L1428.38 469.137C1428.93 467.955 1430.13 465.308 1430.56 464.174C1431 463.04 1432.92 460.393 1433.82 459.211L1436.54 457.085L1438.72 454.958L1438.18 451.413L1434.91 445.741L1433.82 440.07L1432.74 435.107L1433.28 425.891V415.257L1434.91 403.914V401.078L1438.18 393.989L1438.72 391.862L1440.35 389.026L1445.25 383.354L1456.13 374.847L1464.83 370.593L1471.36 367.758L1484.41 365.631L1493.66 364.922H1496.38L1502.36 365.631H1505.08L1513.24 367.758L1514.87 369.176H1515.96L1521.4 372.72L1525.21 376.265L1527.93 382.646L1531.73 391.153L1533.91 398.242H1536.63L1542.61 398.951C1544.06 398.951 1547.18 399.093 1548.05 399.66C1549.14 400.369 1551.86 403.205 1552.95 403.914C1553.82 404.481 1556.94 406.986 1558.39 408.167L1560.56 413.839L1566 423.055L1569.27 440.07L1574.16 436.525H1576.88H1584.5C1585.76 436.053 1588.41 435.107 1588.85 435.107C1589.39 435.107 1593.2 434.398 1594.29 432.98C1595.16 431.846 1601.9 432.508 1605.17 432.98H1609.52H1611.69H1619.85L1628.01 435.107H1639.43L1648.14 438.652L1655.21 442.197L1666.09 454.958L1673.16 457.085H1680.77L1687.3 452.831L1688.93 450.704L1692.2 447.159L1694.37 442.197L1696.55 437.234L1699.81 425.891L1701.99 416.675L1702.53 412.421L1704.16 404.623L1705.25 398.242L1707.97 390.444C1708.33 388.79 1709.28 384.772 1710.15 381.937C1711.02 379.101 1713.05 375.083 1713.95 373.429L1716.13 369.176L1723.2 362.795L1732.99 355.706C1735.35 354.051 1740.17 350.601 1740.61 350.034C1741.04 349.467 1742.24 348.38 1742.78 347.907L1750.4 345.072L1753.66 342.945L1769.98 336.564L1774.87 330.893C1774.33 325.93 1774.87 325.93 1773.24 318.841C1771.61 311.751 1773.24 314.587 1773.24 307.498V299.699C1773.24 296.154 1774.33 291.192 1774.87 281.267C1775.42 271.341 1775.42 277.013 1775.42 274.886C1775.42 272.759 1777.59 268.506 1778.14 265.67C1778.57 263.401 1779.41 259.998 1779.77 258.58L1784.12 250.782L1786.84 243.693L1790.1 235.185L1791.74 230.932L1799.35 215.335L1810.77 204.701L1827.64 187.686L1830.36 186.268L1835.8 182.015L1842.32 177.761L1859.18 173.507L1878.22 168.545L1897.8 165H1905.96H1910.86L1926.63 166.418H1934.79L1941.32 167.836H1942.95C1945.49 169.017 1951 171.522 1952.74 172.089C1954.48 172.657 1956.73 174.216 1957.64 174.925L1960.9 177.052L1971.24 185.559L1981.03 189.104L1985.38 188.395H1988.1C1988.53 188.395 1991.54 187.45 1992.99 186.977H1997.35L2004.42 185.559H2010.4L2017.47 186.977H2020.19L2026.17 188.395L2041.4 194.067L2044.12 196.193L2050.65 199.738L2052.83 201.865C2054.46 205.173 2057.94 212.357 2058.81 214.626L2062.62 219.589L2066.43 228.805C2067.33 231.641 2069.25 237.738 2069.69 239.439C2070.23 241.566 2070.78 243.693 2071.32 245.111C2071.86 246.528 2071.32 250.782 2071.32 255.745C2071.32 260.707 2072.41 262.834 2072.95 264.252C2073.39 265.386 2073.86 268.506 2074.04 269.924L2075.13 276.304L2077.3 279.849L2080.57 281.976H2086.55H2090.36L2097.97 276.304L2106.68 274.177H2113.2H2122.45H2126.8H2130.07H2136.05Z" fill="white"/>
</g>
</g>
<g opacity="0.6">
<g filter="url(#filter1_f_417_22325)">
<path d="M-2.82429 158.231L-7.08556 160.898L-22 602H750L749.29 600.933V597.2V596.133C748.816 595.6 747.727 594.32 747.159 593.466C746.449 592.399 744.318 590.266 743.608 589.199C742.898 588.132 740.057 587.066 740.057 586.532C740.057 585.999 737.216 583.332 737.216 580.665C737.216 577.998 728.694 574.265 727.273 572.131C726.137 570.424 725.853 570.353 725.853 570.531C722.302 567.509 715.058 561.357 714.489 560.93C713.921 560.504 710.465 556.485 708.808 554.53L697.444 548.663L682.53 541.729L674.718 539.062C672.587 538.351 668.042 536.928 666.905 536.928C665.769 536.928 659.33 536.217 656.252 535.861H639.207C636.366 535.861 634.709 536.217 634.235 536.395L626.423 536.928C623.819 536.217 618.469 534.688 617.901 534.261C617.19 533.728 615.06 532.661 614.35 531.061C613.781 529.781 611.272 526.261 610.088 524.661L601.566 519.327L594.464 512.926L581.68 510.259L568.896 509.193L559.663 508.126L553.982 505.992L553.271 504.926L552.561 500.659L541.908 494.258L535.516 490.524C533.385 487.324 528.982 480.817 528.414 480.39C527.704 479.857 523.443 477.19 522.732 475.59C522.022 473.99 511.369 470.256 511.369 469.723C511.369 469.296 506.634 465.278 504.267 463.322L502.846 460.655L492.903 452.121C492.193 451.944 490.205 451.375 487.932 450.521L485.091 449.454L479.409 446.788V443.587V441.987V440.92V433.453L482.25 427.586L482.96 423.852V413.185V411.051L480.83 407.851L477.989 403.584C476.332 403.051 473.017 401.771 473.017 400.917C473.017 399.85 473.728 399.317 475.148 396.65C476.569 393.983 476.569 393.983 477.279 391.85C477.847 390.143 476.095 387.227 475.148 385.983L472.307 380.115C470.887 376.915 467.904 370.408 467.336 369.981C466.626 369.448 462.364 367.848 461.654 367.314C460.944 366.781 460.944 366.248 459.523 359.847C458.103 353.447 455.262 355.047 455.262 352.913C455.262 350.78 452.421 350.78 451.001 346.513C451.001 344.913 447.45 343.312 446.029 340.646C444.609 337.979 441.058 338.512 440.348 337.445C439.638 336.379 436.086 334.778 435.376 334.245L427.564 328.378C426.996 327.951 423.539 326.778 421.882 326.244L411.229 323.044L401.286 313.977C398.682 312.91 393.332 310.67 392.764 310.243C392.195 309.816 391.106 309.354 390.633 309.176L375.008 305.976H362.935L356.543 304.376C355.833 304.198 354.128 303.736 352.992 303.309C351.855 302.882 349.204 302.776 348.02 302.776L345.179 302.242H339.498L334.526 302.776L328.845 304.376L326.004 304.909H323.163H313.93H311.799L304.697 302.242L300.436 299.042L294.754 297.975L291.914 296.909L276.999 299.042L268.477 297.975V292.108C268.477 287.841 268.477 287.841 269.897 286.774C271.317 285.708 269.897 278.24 269.897 277.174C269.897 276.32 268.95 275.396 268.477 275.04V268.106L267.766 266.506C266.109 265.973 262.653 264.799 262.085 264.373C261.374 263.839 260.664 262.773 260.664 261.706V257.972V253.172V246.771C260.664 245.171 259.244 243.038 259.244 241.971C259.244 240.904 258.534 238.771 257.823 238.237C257.255 237.81 255.693 232.37 254.983 229.703L250.721 223.303L243.619 215.835C242.672 215.302 240.778 214.129 240.778 213.702C240.778 213.168 237.937 212.635 237.937 211.568C237.937 210.715 234.623 208.368 232.966 207.301C232.019 206.057 230.125 203.461 230.125 203.034C230.125 202.501 221.603 198.234 221.603 197.167C221.603 196.314 217.815 194.322 215.921 193.434L203.137 188.1L195.325 181.699L178.99 173.165L174.729 170.498L171.178 169.432L164.075 166.765L161.235 162.498L155.553 161.431L151.292 159.297L139.218 155.03L134.957 153.964L127.144 152.897L118.622 153.964L115.781 150.763L98.0258 147.03L92.3441 145.963L80.2705 143.829H77.4296C75.0622 143.829 69.9014 143.936 68.1969 144.363C66.4924 144.79 62.2784 145.252 60.3845 145.43L53.2824 143.829L49.7314 142.763C44.9966 143.652 35.3851 145.536 34.8169 145.963L26.2944 150.23L22.7433 152.363H13.5106L7.11868 153.964L1.43698 157.164L-2.82429 158.231Z" fill="white"/>
</g>
</g>
</g>
<defs>
<filter id="filter0_f_417_22325" x="1071" y="159" width="1089" height="448" filterUnits="userSpaceOnUse" color-interpolation-filters="sRGB">
<feFlood flood-opacity="0" result="BackgroundImageFix"/>
<feBlend mode="normal" in="SourceGraphic" in2="BackgroundImageFix" result="shape"/>
<feGaussianBlur stdDeviation="3" result="effect1_foregroundBlur_417_22325"/>
</filter>
<filter id="filter1_f_417_22325" x="-26" y="138.763" width="780" height="467.238" filterUnits="userSpaceOnUse" color-interpolation-filters="sRGB">
<feFlood flood-opacity="0" result="BackgroundImageFix"/>
<feBlend mode="normal" in="SourceGraphic" in2="BackgroundImageFix" result="shape"/>
<feGaussianBlur stdDeviation="2" result="effect1_foregroundBlur_417_22325"/>
</filter>
<clipPath id="clip0_417_22325">
<rect width="1920" height="600" fill="white"/>
</clipPath>
</defs>
</svg>
