<svg width="1920" height="664" viewBox="0 0 1920 664" fill="none" xmlns="http://www.w3.org/2000/svg">
<rect x="974" y="433" width="946" height="231" fill="white"/>
<g filter="url(#filter0_f_573_334)">
<path d="M2033.05 115.177L2041.75 117.304L2051 442H974V439.164V426.403V421.441V414.351C974.544 412.461 975.632 408.254 975.632 406.553V400.172L980.527 388.12L988.142 376.777L993.038 366.852L1006.09 347.711L1009.9 339.203L1012.62 334.95L1015.88 332.823L1028.94 322.189L1041.99 316.517C1045.44 315.099 1052.87 311.98 1055.05 310.846C1057.77 309.428 1066.47 302.338 1068.65 302.338C1070.82 302.338 1078.44 296.667 1081.16 293.831C1083.33 291.562 1088.59 291.468 1090.95 291.704L1101.83 289.577L1126.3 286.033L1127.93 284.615L1131.74 283.197H1135.55H1141.53H1149.15H1160.57C1161.12 283.197 1168.73 284.615 1170.36 284.615C1171.67 284.615 1176.35 285.56 1178.52 286.033C1180.88 286.978 1186.14 289.01 1188.31 289.577C1190.49 290.144 1192.48 291.231 1193.21 291.704L1197.02 293.831L1204.09 300.211L1205.72 302.338L1218.77 316.517H1222.04H1225.84H1228.56L1239.44 319.353C1242.16 320.298 1247.82 322.189 1248.69 322.189C1249.56 322.189 1251.59 324.079 1252.5 325.024L1257.94 329.987L1263.38 337.785L1268.82 341.33L1269.36 340.621L1270.45 337.785L1277.52 332.823L1283.5 327.151C1284.59 326.679 1286.98 325.592 1287.85 325.024C1288.94 324.315 1293.84 322.189 1294.92 322.189H1298.73H1306.89H1313.42L1317.23 319.353L1318.31 318.644L1320.49 316.517L1321.58 315.099L1323.21 313.681L1325.38 310.137C1325.93 308.955 1327.13 306.308 1327.56 305.174C1328 304.04 1329.92 301.393 1330.82 300.211L1333.54 298.085L1335.72 295.958L1335.18 292.413L1331.91 286.741L1330.82 281.07L1329.74 276.107L1330.28 266.891V256.257L1331.91 244.914V242.078L1335.18 234.989L1335.72 232.862L1337.35 230.026L1342.25 224.354L1353.13 215.847L1361.83 211.593L1368.36 208.758L1381.41 206.631L1390.66 205.922H1393.38L1399.36 206.631H1402.08L1410.24 208.758L1411.87 210.176H1412.96L1418.4 213.72L1422.21 217.265L1424.93 223.646L1428.73 232.153L1430.91 239.242H1433.63L1439.61 239.951C1441.06 239.951 1444.18 240.093 1445.05 240.66C1446.14 241.369 1448.86 244.205 1449.95 244.914C1450.82 245.481 1453.94 247.986 1455.39 249.167L1457.56 254.839L1463 264.055L1466.27 281.07L1471.16 277.525H1473.88H1481.5C1482.76 277.053 1485.41 276.107 1485.85 276.107C1486.39 276.107 1490.2 275.398 1491.29 273.98C1492.16 272.846 1498.9 273.508 1502.17 273.98H1506.52H1508.69H1516.85L1525.01 276.107H1536.43L1545.14 279.652L1552.21 283.197L1563.09 295.958L1570.16 298.085H1577.77L1584.3 293.831L1585.93 291.704L1589.2 288.159L1591.37 283.197L1593.55 278.234L1596.81 266.891L1598.99 257.675L1599.53 253.421L1601.16 245.623L1602.25 239.242L1604.97 231.444C1605.33 229.79 1606.28 225.772 1607.15 222.937C1608.02 220.101 1610.05 216.083 1610.95 214.429L1613.13 210.176L1620.2 203.795L1629.99 196.706C1632.35 195.051 1637.17 191.601 1637.61 191.034C1638.04 190.467 1639.24 189.38 1639.78 188.907L1647.4 186.072L1650.66 183.945L1666.98 177.564L1671.87 171.893C1671.33 166.93 1671.87 166.93 1670.24 159.841C1668.61 152.751 1670.24 155.587 1670.24 148.498V140.699C1670.24 137.154 1671.33 132.192 1671.87 122.267C1672.42 112.341 1672.42 118.013 1672.42 115.886C1672.42 113.759 1674.59 109.506 1675.14 106.67C1675.57 104.401 1676.41 100.998 1676.77 99.5805L1681.12 91.7821L1683.84 84.6927L1687.1 76.1854L1688.74 71.9317L1696.35 56.335L1707.77 45.7008L1724.64 28.6862L1727.36 27.2683L1732.8 23.0146L1739.32 18.761L1756.18 14.5073L1775.22 9.54472L1794.8 6H1802.96H1807.86L1823.63 7.41789H1831.79L1838.32 8.83577H1839.95C1842.49 10.0173 1848 12.5223 1849.74 13.0894C1851.48 13.6566 1853.73 15.2163 1854.64 15.9252L1857.9 18.052L1868.24 26.5593L1878.03 30.1041L1882.38 29.3951H1885.1C1885.53 29.3951 1888.54 28.4499 1889.99 27.9772H1894.35L1901.42 26.5593H1907.4L1914.47 27.9772H1917.19L1923.17 29.3951L1938.4 35.0667L1941.12 37.1935L1947.65 40.7382L1949.83 42.865C1951.46 46.1734 1954.94 53.3574 1955.81 55.626L1959.62 60.5886L1963.43 69.8049C1964.33 72.6406 1966.25 78.7376 1966.69 80.439C1967.23 82.5658 1967.78 84.6927 1968.32 86.1106C1968.86 87.5285 1968.32 91.7821 1968.32 96.7447C1968.32 101.707 1969.41 103.834 1969.95 105.252C1970.39 106.386 1970.86 109.506 1971.04 110.924L1972.13 117.304L1974.3 120.849L1977.57 122.976H1983.55H1987.36L1994.97 117.304L2003.68 115.177H2010.2H2019.45H2023.8H2027.07H2033.05Z" fill="white"/>
</g>
<g filter="url(#filter1_f_573_334)">
<rect x="-132" y="433" width="1150" height="231" fill="white"/>
</g>
<g filter="url(#filter2_f_573_334)">
<path d="M-108.06 20.6516L-111.824 23.1777L-125 441H557L556.373 439.99V436.453V435.443C555.954 434.937 554.992 433.725 554.49 432.916C553.863 431.906 551.981 429.885 551.353 428.875C550.726 427.864 548.216 426.854 548.216 426.348C548.216 425.843 545.706 423.317 545.706 420.791C545.706 418.265 538.178 414.728 536.923 412.707C535.919 411.091 535.668 411.023 535.668 411.192C532.531 408.329 526.131 402.502 525.629 402.098C525.127 401.693 522.074 397.887 520.61 396.035L510.571 390.477L497.396 383.909L490.494 381.383C488.612 380.71 484.596 379.362 483.592 379.362C482.589 379.362 476.9 378.689 474.181 378.352H459.123C456.614 378.352 455.15 378.689 454.731 378.857L447.83 379.362C445.529 378.689 440.803 377.24 440.301 376.836C439.673 376.331 437.791 375.321 437.164 373.805C436.662 372.592 434.445 369.258 433.399 367.742L425.87 362.69L419.596 356.627L408.303 354.101L397.009 353.091L388.853 352.08L383.833 350.059L383.206 349.049L382.579 345.007L373.167 338.944L367.521 335.408C365.638 332.376 361.748 326.213 361.247 325.808C360.619 325.303 356.855 322.777 356.227 321.261C355.6 319.746 346.189 316.209 346.189 315.704C346.189 315.3 342.006 311.494 339.914 309.641L338.66 307.115L329.876 299.031C329.248 298.863 327.492 298.324 325.484 297.516L322.974 296.505L317.955 293.979V290.948V289.432V288.422V281.348L320.465 275.791L321.092 272.254V262.15V260.129L319.21 257.098L316.7 253.056C315.236 252.551 312.308 251.338 312.308 250.53C312.308 249.519 312.936 249.014 314.19 246.488C315.445 243.962 315.445 243.962 316.073 241.941C316.575 240.324 315.027 237.562 314.19 236.383L311.681 230.826C310.426 227.794 307.791 221.631 307.289 221.226C306.661 220.721 302.897 219.206 302.27 218.7C301.642 218.195 301.642 217.69 300.387 211.627C299.132 205.564 296.623 207.08 296.623 205.059C296.623 203.038 294.113 203.038 292.858 198.997C292.858 197.481 289.721 195.965 288.466 193.439C287.212 190.913 284.074 191.418 283.447 190.408C282.82 189.397 279.683 187.882 279.055 187.376L272.154 181.819C271.652 181.415 268.598 180.303 267.134 179.798L257.723 176.767L248.939 168.178C246.639 167.167 241.912 165.045 241.41 164.641C240.908 164.237 239.946 163.799 239.528 163.631L225.725 160.599H215.059L209.412 159.084C208.785 158.915 207.279 158.477 206.275 158.073C205.271 157.669 202.929 157.568 201.883 157.568L199.374 157.063H194.354L189.962 157.568L184.943 159.084L182.433 159.589H179.924H171.767H169.885L163.611 157.063L159.846 154.031L154.827 153.021L152.317 152.01L139.142 154.031L131.613 153.021V147.463C131.613 143.422 131.613 143.422 132.868 142.411C134.122 141.401 132.868 134.328 132.868 133.317C132.868 132.509 132.031 131.633 131.613 131.296V124.728L130.985 123.213C129.521 122.707 126.468 121.596 125.966 121.192C125.339 120.686 124.711 119.676 124.711 118.666V115.129V110.582V104.519C124.711 103.003 123.456 100.983 123.456 99.9721C123.456 98.9617 122.829 96.9408 122.201 96.4355C121.7 96.0314 120.319 90.8781 119.692 88.3519L115.927 82.2892L109.653 75.216C108.817 74.7108 107.144 73.5993 107.144 73.1951C107.144 72.6899 104.634 72.1847 104.634 71.1742C104.634 70.3659 101.706 68.1429 100.242 67.1324C99.4054 65.9535 97.7323 63.4948 97.7323 63.0906C97.7323 62.5854 90.2033 58.5436 90.2033 57.5331C90.2033 56.7247 86.8571 54.8386 85.184 53.9965L73.8905 48.9443L66.989 42.8815L52.5584 34.7979L48.7939 32.2718L45.6568 31.2613L39.3827 28.7352L36.873 24.6934L31.8537 23.6829L28.0892 21.662L17.4232 17.6202L13.6587 16.6098L6.75713 15.5993L-0.771851 16.6098L-3.28151 13.5784L-18.9669 10.0418L-23.9862 9.03136L-34.6523 7.01045H-37.1619C-39.2533 7.01045 -43.8125 7.1115 -45.3183 7.51568C-46.8241 7.91986 -50.5468 8.35772 -52.2199 8.52613L-58.494 7.01045L-61.6311 6C-65.8139 6.84204 -74.3049 8.62718 -74.8068 9.03136L-82.3358 13.0732L-85.4729 15.0941H-93.6293L-99.276 16.6098L-104.295 19.6411L-108.06 20.6516Z" fill="white"/>
</g>
<defs>
<filter id="filter0_f_573_334" x="968" y="0" width="1089" height="448" filterUnits="userSpaceOnUse" color-interpolation-filters="sRGB">
<feFlood flood-opacity="0" result="BackgroundImageFix"/>
<feBlend mode="normal" in="SourceGraphic" in2="BackgroundImageFix" result="shape"/>
<feGaussianBlur stdDeviation="3" result="effect1_foregroundBlur_573_334"/>
</filter>
<filter id="filter1_f_573_334" x="-136" y="429" width="1158" height="239" filterUnits="userSpaceOnUse" color-interpolation-filters="sRGB">
<feFlood flood-opacity="0" result="BackgroundImageFix"/>
<feBlend mode="normal" in="SourceGraphic" in2="BackgroundImageFix" result="shape"/>
<feGaussianBlur stdDeviation="2" result="effect1_foregroundBlur_573_334"/>
</filter>
<filter id="filter2_f_573_334" x="-129" y="2" width="690" height="443" filterUnits="userSpaceOnUse" color-interpolation-filters="sRGB">
<feFlood flood-opacity="0" result="BackgroundImageFix"/>
<feBlend mode="normal" in="SourceGraphic" in2="BackgroundImageFix" result="shape"/>
<feGaussianBlur stdDeviation="2" result="effect1_foregroundBlur_573_334"/>
</filter>
</defs>
</svg>
