<svg width="24" height="24" viewBox="0 0 24 24" fill="none" xmlns="http://www.w3.org/2000/svg">
<rect width="24" height="24" fill="white"/>
<path d="M12 21L11.6207 21.4967C11.8446 21.6678 12.1554 21.6678 12.3793 21.4967L12 21ZM18.875 10.3636C18.875 11.4385 18.4614 12.6067 17.7858 13.7859C17.1137 14.9591 16.2087 16.0974 15.2893 17.1004C14.3717 18.1014 13.4521 18.9543 12.7609 19.5575C12.4158 19.8587 12.1287 20.0967 11.9288 20.2587C11.8288 20.3397 11.7507 20.4017 11.6982 20.443C11.6719 20.4636 11.652 20.4791 11.6389 20.4892C11.6324 20.4943 11.6275 20.498 11.6245 20.5003C11.623 20.5015 11.6219 20.5024 11.6212 20.5028C11.6209 20.5031 11.6207 20.5032 11.6206 20.5033C11.6206 20.5034 11.6206 20.5033 11.6206 20.5034C11.6206 20.5033 11.6207 20.5033 12 21C12.3793 21.4967 12.3794 21.4966 12.3796 21.4965C12.3797 21.4964 12.3799 21.4963 12.3801 21.4962C12.3804 21.4959 12.3809 21.4955 12.3815 21.4951C12.3827 21.4942 12.3843 21.4929 12.3864 21.4913C12.3905 21.4881 12.3965 21.4836 12.4041 21.4776C12.4194 21.4658 12.4416 21.4485 12.4703 21.426C12.5276 21.381 12.6106 21.3151 12.7158 21.2299C12.926 21.0595 13.2249 20.8117 13.5828 20.4993C14.2979 19.8752 15.2533 18.9896 16.2107 17.9451C17.1663 16.9026 18.1363 15.6886 18.8704 14.4073C19.6011 13.1319 20.125 11.7433 20.125 10.3636H18.875ZM12 3.625C15.7507 3.625 18.875 6.70885 18.875 10.3636H20.125C20.125 5.99697 16.4193 2.375 12 2.375V3.625ZM5.125 10.3636C5.125 6.70885 8.24932 3.625 12 3.625V2.375C7.58068 2.375 3.875 5.99697 3.875 10.3636H5.125ZM12 21C12.3793 20.5033 12.3794 20.5033 12.3794 20.5034C12.3794 20.5033 12.3794 20.5034 12.3794 20.5033C12.3793 20.5032 12.3791 20.5031 12.3788 20.5028C12.3781 20.5024 12.377 20.5015 12.3755 20.5003C12.3725 20.498 12.3676 20.4943 12.3611 20.4892C12.348 20.4791 12.3281 20.4636 12.3018 20.443C12.2493 20.4017 12.1712 20.3397 12.0712 20.2587C11.8713 20.0967 11.5842 19.8587 11.2391 19.5575C10.5479 18.9543 9.62826 18.1014 8.71072 17.1004C7.79129 16.0974 6.88632 14.9591 6.21418 13.7859C5.53859 12.6067 5.125 11.4385 5.125 10.3636H3.875C3.875 11.7433 4.39891 13.1319 5.12957 14.4073C5.86368 15.6886 6.83371 16.9026 7.78928 17.9451C8.74674 18.9896 9.7021 19.8752 10.4172 20.4993C10.7751 20.8117 11.074 21.0595 11.2842 21.2299C11.3894 21.3151 11.4724 21.381 11.5297 21.426C11.5584 21.4485 11.5806 21.4658 11.5959 21.4776C11.6035 21.4836 11.6095 21.4881 11.6136 21.4913C11.6157 21.4929 11.6173 21.4942 11.6185 21.4951C11.6191 21.4955 11.6196 21.4959 11.6199 21.4962C11.6201 21.4963 11.6203 21.4964 11.6204 21.4965C11.6206 21.4966 11.6207 21.4967 12 21ZM12.0039 14.125C14.0059 14.125 15.6289 12.502 15.6289 10.5H14.3789C14.3789 11.8117 13.3156 12.875 12.0039 12.875V14.125ZM8.37891 10.5C8.37891 12.502 10.0019 14.125 12.0039 14.125V12.875C10.6922 12.875 9.62891 11.8117 9.62891 10.5H8.37891ZM12.0039 6.875C10.0019 6.875 8.37891 8.49797 8.37891 10.5H9.62891C9.62891 9.18832 10.6922 8.125 12.0039 8.125V6.875ZM15.6289 10.5C15.6289 8.49797 14.0059 6.875 12.0039 6.875V8.125C13.3156 8.125 14.3789 9.18832 14.3789 10.5H15.6289Z" fill="#293C52"/>
</svg>
