<svg width="116" height="52" viewBox="0 0 116 52" fill="none" xmlns="http://www.w3.org/2000/svg">
<path d="M11.2353 29.6981C10.4367 29.4613 9.85135 29.402 8.26155 29.402H6.14594C4.61565 29.402 4.14441 29.3058 3.79471 28.9283C3.55909 28.7062 3.44252 28.3114 3.44252 27.8155C3.44252 26.9765 3.76494 26.4214 4.38251 26.2659C4.73222 26.182 5.08689 26.1623 6.11865 26.1623H11.4734L12.7135 23.5566H5.08689C2.91175 23.5566 1.85271 23.8749 1.05905 24.7731C0.352188 25.5429 0 26.5965 0 27.7316C0 29.6389 1.0268 31.3291 2.50004 31.7905C3.20194 32.0299 3.88151 32.0891 5.6747 32.0891H7.37859C8.9684 32.0891 9.29083 32.1483 9.6455 32.4074C9.93568 32.6838 10.0845 33.0835 10.0845 33.6411C10.0845 34.6355 9.7323 35.0476 8.82207 35.1315C8.31859 35.1907 7.93664 35.1907 7.08593 35.1907H1.41371L0.176094 37.7939L7.99616 37.7963C10.7318 37.7963 11.523 37.594 12.2919 36.718C13.026 35.926 13.4377 34.6725 13.4377 33.3796C13.4402 31.5068 12.6143 30.1373 11.2353 29.6981Z" fill="white"/>
<path d="M87.7388 29.6981C86.9427 29.4613 86.3524 29.402 84.7651 29.402H82.647C81.1266 29.402 80.648 29.3058 80.2982 28.9283C80.0676 28.7062 79.9485 28.3114 79.9485 27.8155C79.9485 26.9765 80.271 26.4214 80.8885 26.2659C81.2382 26.182 81.5979 26.1623 82.6247 26.1623H87.9819L89.222 23.5566H81.5979C79.4203 23.5566 78.3612 23.8749 77.57 24.7731C76.8533 25.5429 76.511 26.5965 76.511 27.7316C76.511 29.6389 77.5328 31.3291 79.011 31.7905C79.7104 32.0299 80.39 32.0891 82.1857 32.0891H83.8871C85.4744 32.0891 85.8018 32.1483 86.154 32.4074C86.4442 32.6838 86.5955 33.0835 86.5955 33.6411C86.5955 34.6355 86.2433 35.0476 85.3281 35.1315C84.8296 35.1907 84.4476 35.1907 83.5969 35.1907H77.9222L76.6846 37.7939L84.5071 37.7963C87.2453 37.7963 88.034 37.594 88.8029 36.718C89.5345 35.926 89.9487 34.6725 89.9487 33.3796C89.9437 31.5068 89.1203 30.1373 87.7388 29.6981Z" fill="white"/>
<path d="M50.5133 33.7946L46.4557 23.5547H42.8396L48.8367 37.7944H51.9816L58.4252 23.5547H54.8983L50.5133 33.7946Z" fill="white"/>
<path d="M24.0723 32.2075C26.4235 32.2075 27.5123 31.946 28.363 31.1539C29.1889 30.3397 29.6577 29.143 29.6577 27.8303C29.6577 25.8637 28.6011 24.2771 26.9815 23.8404C26.0738 23.5788 25.6918 23.5591 23.4844 23.5591L20.4809 23.5566C17.1723 23.5566 15.7537 25.7255 15.7537 28.0499V32.1261C15.7537 33.6165 15.8082 34.1741 16.0736 34.9686C16.2199 35.4893 16.4853 35.963 16.8375 36.3652C17.6039 37.2757 18.6629 37.6779 20.3371 37.7741C20.8083 37.7741 21.3093 37.7963 21.8674 37.7963H27.924L29.1616 35.1907H22.2171C20.538 35.1907 19.9254 34.9908 19.4814 34.3764C19.1887 33.915 19.0995 33.4413 19.0995 32.5283V32.21H24.0723V32.2075ZM19.1019 28.0474C19.1019 26.9346 19.5756 26.1598 20.9199 26.1598H23.7498C25.5753 26.1598 26.2474 26.6212 26.2474 27.85C26.2474 28.6075 25.8977 29.2244 25.3074 29.4391C24.9254 29.5797 24.6601 29.6389 23.7498 29.6389H19.1019V28.0474Z" fill="white"/>
<path d="M65.5573 29.143C63.2011 29.143 62.1198 29.402 61.2616 30.1966C60.4407 31.0108 59.9719 32.2075 59.9719 33.5202C59.9719 35.4868 61.031 37.0734 62.6505 37.5126C63.5608 37.7716 63.9402 37.7939 66.1476 37.7939H69.1536C72.4523 37.7939 73.8809 35.6274 73.8809 33.3154V29.2268C73.8809 27.734 73.8214 27.1764 73.5585 26.3843C73.4096 25.8637 73.1492 25.39 72.7896 24.9902C72.0307 24.0773 70.9691 23.6751 69.2925 23.5788C68.8213 23.5788 68.3228 23.5591 67.7622 23.5591L60.7383 23.5566L61.9784 26.1623H67.4125C69.0817 26.1623 69.7017 26.3597 70.1432 26.979C70.4334 27.4404 70.5301 27.9117 70.5301 28.8271V29.1454H65.5573V29.143ZM70.5301 33.3154C70.5301 34.4134 70.0515 35.1882 68.7121 35.1882H65.8773C64.0568 35.1882 63.3772 34.7268 63.3772 33.498C63.3772 32.7405 63.7344 32.1236 64.3172 31.9238C64.7041 31.7708 64.9646 31.7116 65.8773 31.7116H70.5301V33.3154Z" fill="white"/>
<path d="M35.8483 34.216L35.8557 23.5566H32.5298V34.0137C32.5298 36.4787 34.3577 37.7939 36.26 37.7939H36.7982H42.6614L43.9685 35.0451H36.6965C36.255 35.0451 35.8483 34.8304 35.8483 34.216Z" fill="white"/>
<path d="M113.252 12.2287C110.893 15.1872 107.929 16.8182 105.591 18.1506C103.921 19.0858 102.406 20.0209 101.265 21.1905V16.4406C102.128 15.8682 103.033 15.3698 103.946 14.8516C106.161 13.6006 108.797 12.1473 110.759 9.58606L108.078 6.73862C106.062 8.84582 103.646 10.119 101.645 11.3133C101.516 11.3922 101.387 11.4712 101.268 11.5353V7.25432C102.706 6.3611 104.316 5.4432 105.6 4.09597L101.741 0C100.794 0.278822 98.2962 1.3719 97.5968 2.88199C96.9693 4.21688 100.223 4.03182 101.074 4.72764C101.394 4.97439 101.223 5.30749 101.134 5.40866C100.045 6.81758 93.4276 6.73862 86.0688 15.1872L101.265 31.0529V28.6866C101.265 25.6023 104.293 23.8578 106.441 22.444C109.579 20.396 113.125 18.8884 116 15.165L113.252 12.2287Z" fill="#8DC63F"/>
<path d="M66.5609 51.8812H65.1298V44.4541H62.5901V43.25H69.0932V44.4541H66.5584V51.8812H66.5609Z" fill="white"/>
<path d="M76.0928 48.6001C76.0928 49.1429 76.0209 49.6266 75.8795 50.046C75.7382 50.468 75.5298 50.8233 75.257 51.1144C74.9842 51.4056 74.6568 51.6252 74.2724 51.7757C73.8879 51.9262 73.4564 52.0002 72.9727 52.0002C72.5213 52.0002 72.1072 51.9262 71.7326 51.7757C71.3557 51.6252 71.0307 51.4056 70.7554 51.1144C70.4801 50.8233 70.2668 50.468 70.118 50.046C69.9667 49.6241 69.8923 49.1429 69.8923 48.6001C69.8923 47.8796 70.0188 47.2677 70.2693 46.7668C70.5198 46.2659 70.8795 45.8834 71.3457 45.6194C71.812 45.3554 72.3676 45.2246 73.0124 45.2246C73.6176 45.2246 74.1508 45.3554 74.6146 45.6194C75.0784 45.8834 75.4405 46.2659 75.701 46.7717C75.9614 47.2775 76.0928 47.8845 76.0928 48.6001ZM71.3284 48.6001C71.3284 49.0763 71.3879 49.4834 71.5045 49.8215C71.621 50.1595 71.8021 50.4186 72.0476 50.5987C72.2932 50.7788 72.6082 50.8677 72.9975 50.8677C73.382 50.8677 73.697 50.7788 73.94 50.5987C74.1856 50.4186 74.3666 50.162 74.4832 49.8215C74.5998 49.4834 74.6593 49.0763 74.6593 48.6001C74.6593 48.1288 74.5998 47.7266 74.4832 47.3935C74.3666 47.0604 74.1856 46.8062 73.94 46.6311C73.6945 46.4559 73.377 46.3695 72.9901 46.3695C72.4122 46.3695 71.9906 46.562 71.7252 46.9469C71.4598 47.3318 71.3284 47.8845 71.3284 48.6001Z" fill="white"/>
<path d="M83.4213 45.3457V51.882H82.3226L82.1267 51.0085H82.0547C81.9158 51.233 81.7397 51.4181 81.5264 51.5662C81.3131 51.7142 81.075 51.8228 80.8121 51.8943C80.5492 51.9659 80.2739 52.0004 79.9838 52.0004C79.4927 52.0004 79.0735 51.9165 78.7238 51.7487C78.3741 51.581 78.1038 51.3219 77.9178 50.9715C77.7317 50.6211 77.635 50.1696 77.635 49.6144V45.3457H79.0413V49.3553C79.0413 49.8636 79.1455 50.2436 79.3538 50.4953C79.5621 50.747 79.8846 50.8728 80.3235 50.8728C80.7477 50.8728 81.0825 50.7864 81.328 50.6137C81.5761 50.441 81.7521 50.1844 81.8588 49.8463C81.9654 49.5083 82.02 49.0938 82.02 48.6003V45.3482H83.4213V45.3457Z" fill="white"/>
<path d="M88.7529 45.2207C88.8645 45.2207 88.9835 45.2256 89.115 45.238C89.2464 45.2503 89.358 45.2651 89.4523 45.2849L89.3208 46.5901C89.239 46.5655 89.1348 46.5482 89.0158 46.5334C88.8942 46.5186 88.7876 46.5136 88.6933 46.5136C88.4428 46.5136 88.2072 46.5556 87.9815 46.637C87.7558 46.7184 87.5574 46.8418 87.3813 47.0071C87.2077 47.17 87.0713 47.3748 86.9721 47.6191C86.8729 47.8633 86.8233 48.1471 86.8233 48.4703V51.8828H85.417V45.3465H86.5157L86.7067 46.4988H86.7712C86.9026 46.2669 87.0638 46.0547 87.2573 45.8622C87.4508 45.6698 87.674 45.5143 87.9245 45.3984C88.175 45.2799 88.4528 45.2207 88.7529 45.2207Z" fill="white"/>
</svg>
