<svg width="24" height="24" viewBox="0 0 24 24" fill="none" xmlns="http://www.w3.org/2000/svg">
<rect width="24" height="24" fill="white"/>
<path d="M20 20H19.3846C18.7318 20 18.1057 19.7893 17.644 19.4142C17.1824 19.0391 16.9231 18.5304 16.9231 18C16.9231 18.5304 16.6637 19.0391 16.2021 19.4142C15.7405 19.7893 15.1144 20 14.4615 20C13.8087 20 13.1826 19.7893 12.721 19.4142C12.2593 19.0391 12 18.5304 12 18C12 18.5304 11.7407 19.0391 11.279 19.4142C10.8174 19.7893 10.1913 20 9.53846 20C8.88562 20 8.25952 19.7893 7.79789 19.4142C7.33626 19.0391 7.07692 18.5304 7.07692 18C7.07692 18.5304 6.81758 19.0391 6.35596 19.4142C5.89433 19.7893 5.26823 20 4.61538 20H4" stroke="#293C52" stroke-width="1.25" stroke-linecap="round" stroke-linejoin="round"/>
<path d="M16 15C15.3927 14.3746 14.6293 13.871 13.7648 13.5251C12.9003 13.1793 11.9561 13 11 13C10.0439 13 9.09971 13.1793 8.2352 13.5251C7.37069 13.871 6.60734 14.3746 6 15" stroke="#293C52" stroke-width="1.25" stroke-linecap="round" stroke-linejoin="round"/>
<path d="M11 13C11.08 10.3202 12 7.87747 14 7" stroke="#293C52" stroke-width="1.25" stroke-linecap="round" stroke-linejoin="round"/>
<path d="M11 5.0499C11.6482 4.91889 12.3207 5.04811 12.8789 5.41093C13.437 5.77375 13.8383 6.34252 14 7" stroke="#293C52" stroke-width="1.25" stroke-linecap="round" stroke-linejoin="round"/>
<path d="M18 7C17.497 6.44226 16.813 6.09229 16.0764 6.01583C15.3399 5.93937 14.6015 6.14168 14 6.58476" stroke="#293C52" stroke-width="1.25" stroke-linecap="round" stroke-linejoin="round"/>
<path d="M10 8.21581C10.4188 7.68212 11.0395 7.29139 11.7554 7.11085C12.4712 6.93032 13.2375 6.97126 13.9222 7.22664C14.609 7.37194 15.2037 7.74246 15.5806 8.25995C15.9574 8.77744 16.0871 9.40138 15.9421 10" stroke="#293C52" stroke-width="1.25" stroke-linecap="round" stroke-linejoin="round"/>
</svg>
