<svg width="304" height="304" viewBox="0 0 304 304" fill="none" xmlns="http://www.w3.org/2000/svg">
<path d="M46 115.758L136.875 43.0075C145.642 35.9886 158.105 35.9886 166.873 43.0075L257.747 115.758V260.955C257.747 267.583 252.375 272.955 245.747 272.955H58C51.3726 272.955 46 267.583 46 260.955V115.758Z" fill="#A4B0BF"/>
<g filter="url(#filter0_d_1158_38193)">
<path d="M61 76.9551C61 70.3277 66.3726 64.9551 73 64.9551H231C237.627 64.9551 243 70.3277 243 76.9551V215.955H61V76.9551Z" fill="white"/>
<path d="M61.5 76.9551C61.5 70.6038 66.6487 65.4551 73 65.4551H231C237.351 65.4551 242.5 70.6038 242.5 76.9551V215.455H61.5V76.9551Z" stroke="#EAF0F8"/>
</g>
<circle cx="226" cy="82" r="7" fill="#0F62FE"/>
<path opacity="0.8" d="M97.7969 99.6309V101.682H81.5273V99.6309H85.1602V95.2754C83.7832 94.4453 82.9531 93.1855 82.9531 91.623C82.9531 88.7422 85.7656 86.8477 89.6328 86.8379C93.4805 86.8477 96.3223 88.7422 96.332 91.623C96.3223 93.1562 95.5215 94.3965 94.1836 95.2266V99.6309H97.7969ZM85.4141 91.623C85.4141 93.3613 87.084 94.4355 89.6328 94.4355C92.1426 94.4355 93.8613 93.3613 93.8711 91.623C93.8613 89.8359 92.1426 88.8008 89.6328 88.8105C87.084 88.8008 85.4141 89.8359 85.4141 91.623ZM87.6211 99.6309H91.6641V96.1738C91.0293 96.3008 90.3457 96.3691 89.6328 96.3691C88.9199 96.3691 88.2461 96.3008 87.6211 96.1836V99.6309ZM108.949 87.834V89.7871H105.355C105.385 91.6133 106.713 93.4688 109.574 94.2012L108.422 96.1152C106.391 95.6074 104.975 94.4844 104.164 93.0391C103.393 94.6797 101.967 95.9785 99.8672 96.584L98.6953 94.6504C101.537 93.8301 102.855 91.7988 102.875 89.7871H99.3008V87.834H102.875V85.9004H105.395V87.834H108.949ZM101.605 100.354C101.605 98.2246 103.949 97.0234 107.719 97.0137C111.508 97.0234 113.842 98.2246 113.852 100.354C113.842 102.512 111.508 103.762 107.719 103.752C103.949 103.762 101.605 102.512 101.605 100.354ZM104.086 100.354C104.086 101.33 105.365 101.857 107.719 101.857C110.121 101.857 111.361 101.33 111.371 100.354C111.361 99.4062 110.121 98.9277 107.719 98.9277C105.365 98.9277 104.086 99.4062 104.086 100.354ZM108.422 92.7363V90.7441H111.312V85.9785H113.793V96.7207H111.312V92.7363H108.422ZM126.059 86.7012C128.656 86.7109 130.521 88.166 130.531 90.3145C130.521 92.0527 129.252 93.3809 127.348 93.791V95.0898C128.744 95.002 130.131 94.875 131.43 94.6895L131.625 96.5059C127.963 97.1504 123.891 97.2383 120.922 97.2285L120.668 95.2559C121.898 95.2559 123.334 95.2461 124.848 95.207V93.8105C122.885 93.4199 121.576 92.082 121.586 90.3145C121.576 88.166 123.441 86.7109 126.059 86.7012ZM123.012 103.42V98.3613H125.512V101.428H135.531V103.42H123.012ZM123.91 90.3145C123.891 91.3984 124.799 92.0234 126.059 92.0332C127.338 92.0234 128.188 91.3984 128.188 90.3145C128.188 89.2012 127.328 88.5957 126.059 88.5762C124.799 88.5957 123.891 89.2012 123.91 90.3145ZM132.426 99.5527V85.998H134.926V91.584H137.191V93.6543H134.926V99.5527H132.426ZM154.262 99.7285V101.779H137.992V99.7285H142.152V97.0137H139.867V91.0371H149.926V89.123H139.848V87.1309H152.387V93.0293H142.367V95.002H152.797V97.0137H150.277V99.7285H154.262ZM144.574 99.7285H147.836V97.0137H144.574V99.7285Z" fill="#7B848F"/>
<rect x="81" y="120.955" width="96.9652" height="10.1583" rx="2" fill="#EAF0F8"/>
<rect x="81.6465" y="161.584" width="63.72" height="10.1583" rx="2" fill="#EAF0F8"/>
<rect x="81.6465" y="141.271" width="96.9652" height="10.1583" rx="2" fill="#EAF0F8"/>
<path opacity="0.1" d="M61 120.955V128.955L105.5 201.955L156.5 195.455L61 120.955Z" fill="#002047"/>
<mask id="mask0_1158_38193" style="mask-type:alpha" maskUnits="userSpaceOnUse" x="46" y="37" width="212" height="236">
<path d="M46 115.758L136.875 43.0075C145.642 35.9886 158.105 35.9886 166.873 43.0075L257.747 115.758V260.955C257.747 267.583 252.375 272.955 245.747 272.955H58C51.3726 272.955 46 267.583 46 260.955V115.758Z" fill="#D9D9D9"/>
</mask>
<g mask="url(#mask0_1158_38193)">
<rect x="40.7207" y="193.184" width="228.171" height="92.6762" fill="#D7E0EB"/>
<path d="M161.551 193.477L258.333 115.758L260.68 274.128L161.551 193.477Z" fill="#EAF0F8"/>
<path d="M142.49 193.477L45.7076 115.758L43.3613 274.128L142.49 193.477Z" fill="#EAF0F8"/>
</g>
<defs>
<filter id="filter0_d_1158_38193" x="58" y="61.9551" width="188" height="157" filterUnits="userSpaceOnUse" color-interpolation-filters="sRGB">
<feFlood flood-opacity="0" result="BackgroundImageFix"/>
<feColorMatrix in="SourceAlpha" type="matrix" values="0 0 0 0 0 0 0 0 0 0 0 0 0 0 0 0 0 0 127 0" result="hardAlpha"/>
<feOffset/>
<feGaussianBlur stdDeviation="1.5"/>
<feComposite in2="hardAlpha" operator="out"/>
<feColorMatrix type="matrix" values="0 0 0 0 0 0 0 0 0 0 0 0 0 0 0 0 0 0 0.08 0"/>
<feBlend mode="normal" in2="BackgroundImageFix" result="effect1_dropShadow_1158_38193"/>
<feBlend mode="normal" in="SourceGraphic" in2="effect1_dropShadow_1158_38193" result="shape"/>
</filter>
</defs>
</svg>
