<svg width="24" height="24" viewBox="0 0 24 24" fill="none" xmlns="http://www.w3.org/2000/svg">
<rect width="24" height="24" fill="white"/>
<path d="M10.2 8.5V7.625M10.2 12.4375V11.5625M10.2 16.375V15.5M5.88 5H18.12C19.1281 5 19.6321 5 20.0172 5.19074C20.3559 5.35852 20.6312 5.62623 20.8038 5.95552C21 6.32986 21 6.81991 21 7.8V8.9375C19.2603 8.9375 17.85 10.3086 17.85 12C17.85 13.6914 19.2603 15.0625 21 15.0625V16.2C21 17.1801 21 17.6701 20.8038 18.0445C20.6312 18.3738 20.3559 18.6415 20.0172 18.8093C19.6321 19 19.1281 19 18.12 19H5.88C4.87191 19 4.36786 19 3.98282 18.8093C3.64413 18.6415 3.36876 18.3738 3.19619 18.0445C3 17.6701 3 17.1801 3 16.2V15.0625C4.7397 15.0625 6.15 13.6914 6.15 12C6.15 10.3086 4.7397 8.9375 3 8.9375V7.8C3 6.81991 3 6.32986 3.19619 5.95552C3.36876 5.62623 3.64413 5.35852 3.98282 5.19074C4.36786 5 4.87191 5 5.88 5Z" stroke="#293C52" stroke-width="1.25" stroke-linecap="round" stroke-linejoin="round"/>
</svg>
